<svg xmlns="http://www.w3.org/2000/svg" viewBox="0 0 512 512">
  <rect width="512" height="512" rx="96" fill="#0f0f13"/>
  <rect x="60" y="140" width="392" height="232" rx="18" fill="#1a1a24" stroke="#2a2a3a" stroke-width="6"/>
  <rect x="60" y="140" width="392" height="52" rx="18" fill="#6c63ff"/>
  <rect x="60" y="174" width="392" height="18" fill="#6c63ff"/>
  <rect x="88" y="226" width="100" height="10" rx="5" fill="#6c63ff" opacity="0.9"/>
  <rect x="88" y="248" width="150" height="8" rx="4" fill="#444"/>
  <rect x="88" y="268" width="120" height="8" rx="4" fill="#444"/>
  <rect x="88" y="298" width="100" height="10" rx="5" fill="#6c63ff" opacity="0.9"/>
  <rect x="88" y="320" width="180" height="8" rx="4" fill="#444"/>
  <rect x="88" y="340" width="130" height="8" rx="4" fill="#444"/>
  <rect x="320" y="226" width="40" height="40" rx="6" fill="#6c63ff"/>
  <rect x="370" y="226" width="60" height="18" rx="4" fill="#2a2a3a"/>
  <rect x="370" y="248" width="50" height="18" rx="4" fill="#2a2a3a"/>
  <path d="M332 239 l16 7 l-16 7 z" fill="white"/>
  <text x="256" y="175" text-anchor="middle" font-family="system-ui,sans-serif" font-size="28" font-weight="700" fill="white">FileSplitter</text>
</svg>
